<mxfile host="app.diagrams.net" modified="2023-04-18T17:16:38.081Z" agent="Mozilla/5.0 (Macintosh; Intel Mac OS X 10_15_7) AppleWebKit/605.1.15 (KHTML, like Gecko) Version/16.4 Safari/605.1.15" etag="NvWH6dHSNYlhdej-M2A1" version="21.1.7" type="github">
  <diagram name="Page-1" id="G6dPx0dV-2Z-EJDql5qS">
    <mxGraphModel dx="838" dy="597" grid="1" gridSize="10" guides="1" tooltips="1" connect="1" arrows="1" fold="1" page="1" pageScale="1" pageWidth="850" pageHeight="1100" math="0" shadow="0">
      <root>
        <mxCell id="0" />
        <mxCell id="1" parent="0" />
      </root>
    </mxGraphModel>
  </diagram>
</mxfile>
